<svg width="24" height="24" viewBox="0 0 24 24" fill="none" xmlns="http://www.w3.org/2000/svg">
<g opacity="0.32">
<path fill-rule="evenodd" clip-rule="evenodd" d="M21.1784 9.2408L22.8837 9.52507C23.5099 9.6296 24 10.2083 24 10.8424V13.1576C24 13.792 23.5099 14.3704 22.8829 14.4752L21.1776 14.7589C20.6683 14.8437 20.3147 15.0675 20.1813 15.3893C20.048 15.7112 20.1403 16.1195 20.4403 16.5395L21.4453 17.9459C21.8144 18.4621 21.752 19.2179 21.3029 19.6661L19.6661 21.304C19.4235 21.5459 19.0765 21.6848 18.7144 21.6848C18.4344 21.6848 18.1619 21.5997 17.9459 21.4459L16.5395 20.4408C16.2483 20.2331 15.9576 20.1232 15.6976 20.1232C15.2125 20.1232 14.8707 20.5077 14.7587 21.1781L14.4749 22.8837C14.3709 23.5099 13.7923 24 13.1576 24H10.8424C10.208 24 9.6296 23.5099 9.5248 22.8837L9.2408 21.1781C9.12907 20.5077 8.78667 20.1232 8.30187 20.1232C8.0424 20.1232 7.75147 20.2331 7.46053 20.4405L6.05387 21.4459C5.83813 21.6 5.56533 21.6848 5.28533 21.6848C4.92293 21.6848 4.576 21.5456 4.3336 21.3035L2.696 19.6659C2.24773 19.2176 2.18507 18.4619 2.55387 17.9456L3.55893 16.5389C3.85893 16.1184 3.95093 15.7101 3.8176 15.3888C3.68453 15.0672 3.33093 14.8432 2.82187 14.7584L1.11627 14.4747C0.490133 14.3704 0 13.792 0 13.1576V10.8424C0 10.208 0.4904 9.6296 1.116 9.52533L2.82187 9.2408C3.33067 9.156 3.68427 8.93227 3.8176 8.6104C3.95093 8.28853 3.85893 7.88027 3.55893 7.46027L2.5536 6.0536C2.18507 5.5376 2.24747 4.78187 2.696 4.33333L4.33413 2.69653C4.57627 2.45413 4.92347 2.3152 5.28613 2.3152C5.56587 2.3152 5.83867 2.4 6.0544 2.55413L7.46107 3.5592C7.752 3.76667 8.04267 3.87653 8.30213 3.87653C8.7872 3.87653 9.12933 3.492 9.24133 2.82107L9.52533 1.11627C9.6296 0.490133 10.208 0 10.8424 0H13.1576C13.7923 0 14.3704 0.490133 14.4749 1.116L14.7597 2.82107C14.8709 3.49173 15.2136 3.87627 15.6987 3.87627C15.9579 3.87627 16.2491 3.76667 16.5403 3.55893L17.9467 2.55387C18.1627 2.39973 18.4352 2.31493 18.7152 2.31493C19.0776 2.31493 19.4248 2.45387 19.6669 2.69627L21.3043 4.33307C21.752 4.7816 21.8147 5.53733 21.4461 6.05333L20.4411 7.46027C20.1411 7.88027 20.0488 8.28853 20.1821 8.6104C20.3155 8.932 20.6691 9.156 21.1784 9.2408ZM22.6376 13.621C22.8478 13.5857 23.04 13.3597 23.04 13.1458H23.0395V10.8539C23.0395 10.6403 22.8481 10.4138 22.6374 10.3787L20.949 10.0973C20.1483 9.96393 19.5714 9.5621 19.3243 8.96569C19.0772 8.36955 19.201 7.6773 19.6728 7.017L20.6678 5.62407C20.7919 5.45008 20.7676 5.15439 20.6166 5.00337L18.9961 3.38285C18.8514 3.23844 18.5431 3.2123 18.3754 3.33164L16.9827 4.3267C16.5511 4.63481 16.0943 4.7977 15.6611 4.7977C14.7555 4.7977 14.0823 4.12843 13.902 3.05073L13.6208 1.36236C13.5857 1.15194 13.3599 0.96 13.1458 0.96H10.8537C10.6398 0.96 10.4138 1.15194 10.3787 1.36262L10.0975 3.05073C9.91746 4.12817 9.24396 4.7977 8.33866 4.7977H8.33839C7.90515 4.7977 7.44867 4.63481 7.01727 4.3267L5.6246 3.33164C5.45695 3.2123 5.14858 3.23844 5.0039 3.38285L3.38285 5.00337C3.23184 5.15465 3.20729 5.45035 3.33137 5.62407L4.3267 7.01674C4.79823 7.6773 4.92232 8.36928 4.6752 8.96543C4.42835 9.56183 3.85148 9.96366 3.05099 10.097L1.36236 10.3784C1.15194 10.4135 0.96 10.6401 0.96 10.8537V13.1458C0.96 13.3597 1.15167 13.5857 1.36236 13.621L3.05125 13.9022C3.85174 14.0358 4.42835 14.4376 4.67547 15.0338C4.92258 15.6302 4.7985 16.3222 4.32697 16.9825L3.3319 18.3751C3.20781 18.5491 3.2321 18.8448 3.38312 18.9958L5.00416 20.6169C5.14884 20.7616 5.45721 20.7877 5.62486 20.6681L7.01753 19.673C7.44867 19.3647 7.90567 19.202 8.33892 19.202C9.24422 19.202 9.91772 19.871 10.0978 20.9487L10.379 22.6374C10.4141 22.8475 10.6401 23.0397 10.8539 23.0397H13.1461C13.3599 23.0397 13.5862 22.8481 13.6213 22.6374L13.9022 20.9487C14.0823 19.871 14.756 19.2018 15.6611 19.2018C16.0946 19.2018 16.5516 19.3647 16.983 19.6725L18.3754 20.6678C18.5433 20.788 18.8517 20.7613 18.9966 20.6169L20.6171 18.9956C20.7682 18.844 20.7922 18.5483 20.6681 18.3746L19.6728 16.9822C19.2015 16.3219 19.0772 15.6299 19.3245 15.0335C19.5711 14.4371 20.1483 14.0355 20.949 13.902L22.6376 13.621Z" fill="black"/>
<path fill-rule="evenodd" clip-rule="evenodd" d="M7.03796 12.318C7.03796 9.40653 9.40685 7.03795 12.318 7.03795C15.2288 7.03795 17.598 9.40653 17.598 12.318C17.598 15.2291 15.2294 17.598 12.318 17.598C9.40655 17.598 7.03796 15.2288 7.03796 12.318ZM7.99796 12.3183C7.99796 14.7002 9.93599 16.6383 12.318 16.6383C14.6999 16.6383 16.638 14.7002 16.638 12.3183C16.638 9.93598 14.6999 7.99795 12.318 7.99795C9.93599 7.99795 7.99796 9.93598 7.99796 12.3183Z" fill="black"/>
</g>
</svg>
