<svg width="23" height="20" viewBox="0 0 23 20" fill="none" xmlns="http://www.w3.org/2000/svg">
<path d="M5.34028 14.1355L1.06638 17.1388L1.06807 4.69574C1.06807 4.69498 1.06808 4.69422 1.06808 4.69345C1.07155 3.96189 1.07451 3.46464 1.1036 3.07809C1.132 2.7009 1.18134 2.5038 1.24156 2.36463C1.47063 1.83517 1.9243 1.39961 2.51661 1.17527C2.68193 1.11265 2.90762 1.06595 3.31472 1.04206C3.72964 1.01772 4.26092 1.01977 5.03136 1.02342L17.5452 1.08269C18.3157 1.08634 18.8469 1.08933 19.2616 1.1176C19.6685 1.14535 19.8937 1.19418 20.0584 1.25836C20.6486 1.4883 21.0981 1.92814 21.3221 2.45975C21.381 2.59948 21.4285 2.79704 21.4533 3.17448C21.4788 3.5617 21.477 4.05958 21.4735 4.7924L21.4471 10.3649C21.4437 11.0978 21.4407 11.5956 21.4116 11.9826C21.3832 12.3598 21.3339 12.5569 21.2737 12.6961C21.0446 13.2255 20.5909 13.6611 19.9986 13.8854C19.8333 13.948 19.6076 13.9947 19.2005 14.0186C18.7858 14.043 18.2549 14.0409 17.4852 14.0373C17.4848 14.0373 17.4843 14.0373 17.4839 14.0373L5.92244 13.9538C5.71419 13.9522 5.51067 14.0158 5.34028 14.1355Z" stroke="#FAA120" stroke-width="2" stroke-linecap="round" stroke-linejoin="round"/>
</svg>
