<svg width="22" height="12" viewBox="0 0 22 12" fill="none" xmlns="http://www.w3.org/2000/svg">
<path fill-rule="evenodd" clip-rule="evenodd" d="M5.05176 5.3877H9.0166V10.5693C8.37402 10.779 7.76905 10.9259 7.20166 11.0103C6.63427 11.0946 6.05437 11.1367 5.46191 11.1367C3.95344 11.1367 2.8016 10.6935 2.00635 9.80713C1.2111 8.92073 0.813477 7.64812 0.813477 5.98926C0.813477 4.37597 1.2749 3.11817 2.19775 2.21582C3.12061 1.31347 4.40006 0.862305 6.03613 0.862305C7.06153 0.862305 8.05045 1.06738 9.00293 1.47754L8.29883 3.17285C7.56966 2.80827 6.81088 2.62598 6.02246 2.62598C5.10644 2.62598 4.37272 2.93359 3.82129 3.54883C3.26985 4.16407 2.99414 4.99121 2.99414 6.03027C2.99414 7.11491 3.21631 7.94319 3.66064 8.51514C4.10498 9.08708 4.75097 9.37305 5.59863 9.37305C6.04069 9.37305 6.48958 9.32747 6.94531 9.23633V7.15137H5.05176V5.3877ZM11.3955 11V1.00586H13.5146V11H11.3955ZM16.0303 11H18.1152V7.04883H21.5059V5.31934H18.1152V2.74219H21.7588V1.00586H16.0303V11Z" fill="black" fill-opacity="0.9"/>
</svg>
