<svg width="24" height="24" viewBox="0 0 24 24" fill="none" xmlns="http://www.w3.org/2000/svg">
<g opacity="0.32">
<path fill-rule="evenodd" clip-rule="evenodd" d="M14.1006 5.37494L19.8682 6.58547C21.1909 6.86123 22.0415 8.16057 21.7705 9.48795L21.2563 11.9371C21.2003 12.1894 20.9525 12.3484 20.7001 12.2969L18.9708 11.9324V20.794V20.8034C18.9615 22.1495 17.8678 23.2385 16.5217 23.2291H4.45378H4.44443C3.09836 23.2338 2.00467 22.1448 2 20.7987V11.3295C2 11.0677 2.21032 10.8387 2.46739 10.8387H13.8856L11.9507 10.4601L3.20118 8.61861C2.9488 8.56719 2.78988 8.31948 2.8413 8.06709L3.35542 5.61798C3.63585 4.29528 4.93052 3.44931 6.25789 3.72507L12.0956 4.94962L8.62069 1.65517C8.50384 1.42615 9.85677 0.196297 10.0858 0.0794506C10.3148 -0.0373961 10.5999 0.0514074 10.7168 0.280427L13.1332 4.9169L17.5967 1.70596C17.807 1.55639 18.1015 1.60313 18.251 1.81346C18.4006 2.02378 19.1758 3.57457 18.9655 3.72413L14.1006 5.37494ZM3.85085 7.80535L11.6843 9.44588L12.4087 5.9732L6.06159 4.64115C5.24366 4.47289 4.43976 4.99636 4.26683 5.81429L3.85085 7.80535ZM18.0314 20.7987C18.0314 21.626 17.3583 22.299 16.5264 22.2943H16.517H4.44911C3.61716 22.3037 2.93945 21.6353 2.93477 20.8081V20.7987V11.7781H18.0314V20.7987ZM20.4337 11.2827L20.8497 9.29164C21.018 8.47372 20.4945 7.66981 19.6766 7.49688L13.3295 6.16015L12.6003 9.62816L20.4337 11.2827Z" fill="black"/>
<path fill-rule="evenodd" clip-rule="evenodd" d="M10.7542 21.0417C10.5672 21.1119 10.3662 21.1119 10.1793 21.0417C8.70233 20.4528 7.55256 19.5695 6.85148 18.4945C6.22051 17.527 5.97747 16.438 6.1691 15.4331C6.43083 14.1011 7.43104 13.2083 8.66494 13.2083C9.25852 13.2083 9.86145 13.4 10.4644 13.7879C11.0533 13.4093 11.6656 13.2083 12.2545 13.2083C13.5117 13.2083 14.4886 14.0777 14.7503 15.4191C15.1055 17.2606 14.0072 19.7097 10.7542 21.0417ZM8.66494 14.1478C7.87038 14.1478 7.26745 14.7087 7.08985 15.6154C6.80942 17.0736 7.74886 19.0367 10.4644 20.149C13.1799 19.0133 14.11 17.0503 13.8296 15.6014C13.6566 14.704 13.0537 14.1478 12.2545 14.1478C11.7871 14.1478 11.2496 14.3581 10.7495 14.7367C10.5812 14.8629 10.3569 14.8629 10.1886 14.7414C9.6558 14.3488 9.14635 14.1478 8.66494 14.1478Z" fill="black"/>
</g>
</svg>
