<svg width="21" height="11" viewBox="0 0 21 11" fill="none" xmlns="http://www.w3.org/2000/svg">
<path fill-rule="evenodd" clip-rule="evenodd" d="M4.23828 4.52539H8.20312V9.70703C7.56054 9.91667 6.95557 10.0636 6.38818 10.1479C5.8208 10.2323 5.24089 10.2744 4.64844 10.2744C3.13997 10.2744 1.98812 9.83122 1.19287 8.94482C0.39762 8.05843 0 6.78582 0 5.12695C0 3.51366 0.461421 2.25586 1.38428 1.35352C2.30713 0.451167 3.58658 0 5.22266 0C6.24805 0 7.23697 0.205076 8.18945 0.615234L7.48535 2.31055C6.75618 1.94596 5.9974 1.76367 5.20898 1.76367C4.29296 1.76367 3.55925 2.07129 3.00781 2.68652C2.45638 3.30176 2.18066 4.1289 2.18066 5.16797C2.18066 6.25261 2.40283 7.08089 2.84717 7.65283C3.29151 8.22478 3.9375 8.51074 4.78516 8.51074C5.22722 8.51074 5.6761 8.46517 6.13184 8.37402V6.28906H4.23828V4.52539ZM10.582 10.1377V0.143555H12.7012V10.1377H10.582ZM15.2168 10.1377H17.3018V6.18652H20.6924V4.45703H17.3018V1.87988H20.9453V0.143555H15.2168V10.1377Z" fill="#FAA120" fill-opacity="0.9"/>
</svg>
